<svg
            version="1.0"
            xmlns="http://www.w3.org/2000/svg"
            width="2.5em"
            height="2.5em"
            viewBox="0 0 515.000000 505.000000"
            preserveAspectRatio="xMidYMid meet"
          >
            <g
              transform="translate(0.000000,505.000000) scale(0.100000,-0.100000)"
              fill="currentColor"
              stroke="none"
            >
              <path
                d="M1894 4590 c-48 -15 -99 -74 -119 -136 -65 -208 144 -451 313 -365
48 24 66 45 93 105 18 41 21 63 17 125 -5 80 -20 119 -70 184 -57 72 -159 110
-234 87z"
              ></path>
              <path
                d="M2310 4533 c-95 -91 -69 -250 48 -300 48 -20 97 -8 138 35 105 108
38 302 -104 302 -36 0 -49 -6 -82 -37z"
              ></path>
              <path
                d="M2704 4476 c-59 -26 -100 -118 -84 -189 27 -123 153 -145 225 -40 20
30 25 50 25 98 -1 68 -14 98 -56 126 -34 22 -67 24 -110 5z"
              ></path>
              <path
                d="M2948 4280 c-41 -34 -56 -68 -53 -124 3 -54 58 -106 111 -106 69 0
138 78 130 147 -2 16 -4 33 -5 40 0 6 -15 25 -32 42 -42 43 -100 43 -151 1z"
              ></path>
              <path
                d="M2300 4077 c-218 -43 -336 -213 -314 -451 13 -147 55 -253 164 -414
136 -202 184 -376 149 -544 -6 -29 -29 -105 -51 -168 -77 -223 -96 -386 -58
-509 21 -69 85 -167 137 -210 112 -92 264 -109 402 -44 65 30 179 140 211 203
24 48 56 147 64 205 4 22 11 132 16 245 11 247 33 383 101 620 28 100 52 330
45 435 -19 281 -153 467 -414 574 -141 58 -327 82 -452 58z"
              ></path>
              <path
                d="M3156 4064 c-64 -44 -76 -121 -27 -176 24 -27 36 -33 68 -32 50 2 87
25 108 71 50 105 -55 201 -149 137z"
              ></path>
              <path
                d="M1252 2860 c-54 -13 -107 -55 -129 -102 -12 -24 -30 -104 -42 -178
-12 -74 -32 -200 -46 -280 -86 -508 -88 -529 -35 -636 32 -66 49 -83 206 -209
54 -44 123 -103 153 -131 l54 -51 6 -97 c5 -81 10 -100 26 -112 26 -19 49 -18
70 6 15 17 17 33 13 109 -9 149 -22 166 -275 374 -73 60 -143 125 -155 145
-33 52 -30 160 10 397 18 105 39 228 47 275 8 47 17 101 19 120 7 54 26 161
37 201 12 47 65 79 103 61 14 -6 32 -22 41 -36 15 -23 15 -36 0 -168 -28 -252
-42 -317 -76 -356 -37 -42 -49 -72 -49 -121 0 -120 114 -328 230 -420 56 -44
80 -50 104 -25 30 29 18 56 -53 129 -81 81 -134 164 -161 253 -18 58 -18 66
-5 93 28 52 95 45 126 -13 20 -39 135 -181 181 -224 23 -23 86 -74 138 -114
112 -85 131 -105 173 -185 l32 -60 5 -268 c5 -251 6 -270 24 -283 26 -19 39
-18 67 5 l24 19 0 239 c0 203 -3 247 -18 298 -42 135 -105 221 -230 315 -118
88 -155 121 -158 140 -3 16 6 117 22 252 9 72 8 97 -5 140 -17 60 -55 117 -91
136 -15 7 -28 27 -35 51 -12 45 -75 131 -95 131 -8 0 -28 28 -43 63 -37 80
-68 103 -162 122 -8 1 -30 -1 -48 -5z m246 -347 c10 -30 9 -61 -4 -148 -20
-138 -19 -135 -43 -128 -26 7 -27 28 -4 191 18 129 31 151 51 85z m128 -273
c-3 -52 -10 -108 -14 -123 l-8 -29 -18 21 c-18 19 -18 27 -7 108 6 49 14 103
18 122 6 32 7 33 20 15 12 -15 14 -39 9 -114z"
              ></path>
              <path
                d="M3817 2859 c-59 -14 -97 -48 -129 -116 -15 -35 -35 -63 -43 -63 -20
0 -83 -86 -95 -131 -7 -24 -20 -44 -35 -51 -36 -19 -74 -76 -91 -136 -13 -43
-14 -68 -5 -140 16 -135 25 -236 22 -252 -3 -19 -40 -52 -158 -140 -125 -94
-188 -180 -230 -315 -15 -51 -18 -95 -18 -298 l0 -239 24 -19 c28 -23 41 -24
67 -5 18 13 19 32 24 283 l5 268 32 60 c42 80 61 100 173 185 52 40 115 91
138 114 46 43 161 185 181 224 31 58 98 65 126 13 13 -27 13 -35 -5 -93 -27
-89 -80 -172 -161 -253 -71 -73 -83 -100 -53 -129 24 -25 48 -19 104 25 116
92 230 300 230 420 0 49 -12 79 -49 121 -34 39 -48 104 -76 356 -15 132 -15
145 0 168 9 14 27 30 41 36 38 18 91 -14 103 -61 11 -40 30 -147 37 -201 2
-19 11 -73 19 -120 94 -553 99 -604 56 -674 -12 -19 -81 -83 -154 -143 -253
-208 -266 -225 -275 -374 -4 -76 -2 -92 13 -109 21 -24 44 -25 70 -6 16 12 21
31 26 112 l6 97 54 51 c30 28 99 87 153 131 55 44 117 95 138 114 45 39 95
138 104 202 6 45 -18 224 -71 529 -13 74 -33 198 -45 276 -26 169 -47 218
-111 255 -52 32 -91 39 -142 28z m-114 -431 c23 -163 22 -184 -4 -191 -24 -7
-23 -10 -43 128 -13 87 -14 118 -4 148 20 66 33 44 51 -85z m-133 -201 c12
-91 11 -99 -6 -118 l-18 -21 -8 29 c-16 60 -21 208 -8 234 l13 24 7 -25 c4
-14 13 -69 20 -123z"
              ></path>
            </g>
          </svg>