<?xml version="1.0" encoding="iso-8859-1"?>
<!-- Uploaded to: SVG Repo, www.svgrepo.com, Generator: SVG Repo Mixer Tools -->
<svg fill="#000000" height="800px" width="800px" version="1.1" id="Capa_1" xmlns="http://www.w3.org/2000/svg" xmlns:xlink="http://www.w3.org/1999/xlink" 
	 viewBox="0 0 485.829 485.829" xml:space="preserve">
<g>
	<g>
		<path d="M76.591,97.167c9.156,0,16.605-8.938,16.605-19.923s-7.449-19.922-16.605-19.922c-9.156,0-16.605,8.936-16.605,19.922
			C59.986,88.229,67.436,97.167,76.591,97.167z"/>
		<path d="M115.237,78.386c9.156,0,16.606-8.938,16.606-19.924c0-10.985-7.45-19.922-16.606-19.922
			c-9.155,0-16.604,8.937-16.604,19.922C98.633,69.448,106.082,78.386,115.237,78.386z"/>
		<path d="M175.919,89.003c-14.41,0-32.455,5.976-58.507,19.374c-7.444,3.829-14.101,7.11-19.974,10.005
			c-24.758,12.206-33.648,17.001-40.091,28.289l-0.202,0.354c-7.653,13.405-20.464,35.842-13.991,67.361
			c2.245,10.938,5.935,20.979,10.606,33.694c10.256,27.914,24.302,66.144,37.38,149.512c8.926,56.901,29.852,88.237,58.924,88.237
			c5.206,0,8.846-1.092,9.4-1.268c0.553-0.221,0.659-0.252,1.249-0.385c2.984-0.844,49.846-15.52,40.746-99.74
			c-11.195-103.622-0.445-138.993,15.965-177.652c1.521-3.584,3.264-7.198,5.109-11.024c11.941-24.764,24.289-50.37-7.887-86.532
			C202.202,95.241,190.258,89.003,175.919,89.003z"/>
		<path d="M175.919,63.304c15.514,0,29.234,4.56,42.113,14.133c6.513-8.229,10.492-19.178,10.492-31.18
			C228.524,20.751,210.565,0,188.489,0c-22.075,0-40.034,20.751-40.034,46.257c0,7.238,1.449,14.091,4.026,20.197
			C160.881,64.319,168.559,63.304,175.919,63.304z"/>
		<path d="M61.113,108.408c0.004-0.184,0.023-0.364,0.023-0.549c0-10.985-7.449-19.922-16.606-19.922
			c-9.155,0.001-16.605,8.937-16.605,19.922c0,8.945,4.94,16.529,11.718,19.039C45.391,119.26,52.349,113.684,61.113,108.408z"/>
		<path d="M409.237,97.167c9.156,0,16.605-8.938,16.605-19.923s-7.449-19.922-16.605-19.922s-16.605,8.936-16.605,19.922
			C392.632,88.229,400.082,97.167,409.237,97.167z"/>
		<path d="M370.591,78.386c9.155,0,16.604-8.938,16.604-19.924c0-10.985-7.449-19.922-16.604-19.922
			c-9.156,0-16.606,8.937-16.606,19.922C353.986,69.448,361.435,78.386,370.591,78.386z"/>
		<path d="M428.483,146.671c-6.443-11.288-15.333-16.083-40.091-28.289c-5.873-2.895-12.53-6.176-19.974-10.005
			c-26.053-13.398-44.097-19.374-58.507-19.374c-14.339,0-26.283,6.238-38.728,20.225c-32.176,36.162-19.828,61.769-7.887,86.532
			c1.845,3.826,3.588,7.44,5.109,11.024c16.41,38.659,27.161,74.03,15.965,177.652c-9.1,84.221,37.762,98.897,40.746,99.74
			c0.59,0.133,0.696,0.164,1.249,0.385c0.554,0.176,4.195,1.268,9.4,1.268c29.072,0,49.998-31.336,58.924-88.237
			c13.078-83.368,27.124-121.598,37.38-149.512c4.671-12.715,8.361-22.757,10.606-33.694c6.473-31.52-6.338-53.956-13.991-67.361
			L428.483,146.671z"/>
		<path d="M309.909,63.304c7.36,0,15.038,1.016,23.438,3.15c2.577-6.106,4.026-12.959,4.026-20.197
			C337.374,20.751,319.414,0,297.339,0c-22.074,0-40.034,20.751-40.034,46.257c0,12.002,3.979,22.951,10.492,31.18
			C280.676,67.863,294.396,63.304,309.909,63.304z"/>
		<path d="M441.297,87.938c-9.156,0-16.605,8.937-16.605,19.922c0,0.185,0.019,0.365,0.023,0.549
			c8.764,5.275,15.723,10.852,21.471,18.49c6.778-2.51,11.718-10.094,11.718-19.039C457.904,96.874,450.455,87.938,441.297,87.938z"
			/>
	</g>
</g>
</svg>