<?xml version="1.0" encoding="iso-8859-1"?>
<!-- Uploaded to: SVG Repo, www.svgrepo.com, Generator: SVG Repo Mixer Tools -->
<!DOCTYPE svg PUBLIC "-//W3C//DTD SVG 1.1//EN" "http://www.w3.org/Graphics/SVG/1.1/DTD/svg11.dtd">
<svg fill="#000000" height="800px" width="800px" version="1.1" id="Capa_1" xmlns="http://www.w3.org/2000/svg" xmlns:xlink="http://www.w3.org/1999/xlink" 
	 viewBox="0 0 58.114 58.114" xml:space="preserve">
<g>
	<path d="M11.683,43.057l-1.686-1.686v1.686l-5.845-0.001c-0.587,0-2.583,0.109-3.6,1.511c-0.431,0.595-0.832,1.648-0.293,3.292
		c0.766,2.336,4.412,5.765,9.738,7.742v1.664l0.68,0.229c1.118,0.378,2.331,0.563,3.707,0.563c2.572,0,5.279-0.643,8.146-1.321
		l0.908-0.215c0.479-0.112,0.944-0.193,1.417-0.293L11.997,43.371L11.683,43.057z M2.159,47.236
		c-0.221-0.675-0.217-1.179,0.013-1.495c0.391-0.54,1.462-0.684,2.033-0.684c0.001,0,0.002,0,0.004,0h5.788v8.404
		C5.44,51.602,2.652,48.738,2.159,47.236z"/>
	<circle cx="37.997" cy="3.548" r="1"/>
	<circle cx="40.997" cy="5.548" r="1"/>
	<circle cx="38.997" cy="8.548" r="1"/>
	<polygon points="54.997,24.057 35.311,24.057 46.497,35.244 54.997,26.744 	"/>
	<path d="M56.388,47.963L32.483,24.057h-0.485v6.194c0,1.553-0.98,2.952-2.439,3.483L26.354,34.9l20.601,20.601
		c0.337,0.015,0.677,0.037,1.014,0.046c0.23,0.006,0.454,0.01,0.671,0.01c0,0,0,0,0,0c6.124,0,7.634-2.529,8.131-3.36l0.055-0.091
		c0.242-0.359,0.689-1.34,0.989-2.716l-1.426-1.426C56.389,47.963,56.388,47.963,56.388,47.963z"/>
	<path d="M54.997,29.572l-7.086,7.086l10.2,10.2c0.034-1.704-0.255-3.678-1.207-5.731c-1.88-4.055-1.907-9.524-1.907-9.579V29.572z"
		/>
	<path d="M54.997,12.057h-2v-12h-19v12h-2v10h23V12.057z M35.997,7.548c0.552,0,1-0.448,1-1c0-0.552-0.448-1-1-1V2.057h15v10h-15
		V7.548z"/>
	<path d="M11.687,40.233l15.534,15.534c3.08-0.52,6.088-0.78,9.238-0.78c2.549,0,4.841,0.158,7.057,0.312
		c0.149,0.01,0.289,0.019,0.436,0.029L24.28,35.654L11.687,40.233z"/>
</g>
</svg>