<?xml version="1.0" encoding="iso-8859-1"?>
<!-- Uploaded to: SVG Repo, www.svgrepo.com, Generator: SVG Repo Mixer Tools -->
<svg fill="#000000" height="800px" width="800px" version="1.1" id="Layer_1" xmlns="http://www.w3.org/2000/svg" xmlns:xlink="http://www.w3.org/1999/xlink" 
	 viewBox="0 0 512.099 512.099" xml:space="preserve">
<g>
	<g>
		<path d="M504.594,261.784l-0.017-2.534c-0.589-8.294-10.138-27.58-86.366-27.58h-0.128c-17.288,1.22-54.118-1.442-58.231-17.306
			c-0.247-0.973-0.776-1.801-1.331-2.611l-89.25,100.216c-6.067-1.417-12.271-2.97-18.654-4.727l88.218-99.046
			c-0.102,0.051-0.205,0.068-0.299,0.128c-0.137,0.068-0.282,0.154-0.418,0.23l-6.886-5.171c-0.546-1.408-1.408-3.115-2.441-4.873
			l-34.057,38.647c-1.681,1.911-4.036,2.893-6.4,2.893c-2.005,0-4.011-0.7-5.641-2.133c-3.533-3.115-3.874-8.508-0.759-12.041
			l33.007-37.461c-2.935-0.375-6.571-0.034-10.684,2.057l-2.816-1.869l-38.144,37.359c-1.673,1.63-3.814,2.441-5.973,2.441
			c-2.219,0-4.429-0.853-6.101-2.56c-3.294-3.371-3.243-8.772,0.119-12.066l38.289-37.504c-2.944-1.306-7.151-2.193-12.629-0.614
			c-2.654-1.425-5.914-3.575-7.936-5.871l-38.298,37.495c-1.655,1.621-3.814,2.432-5.965,2.432c-2.219,0-4.429-0.853-6.101-2.56
			c-3.294-3.371-3.234-8.772,0.137-12.066l37.436-36.651c-2.62-0.375-5.931-0.051-9.651,2.048
			c-2.441-0.58-7.893-2.876-14.345-12.041c-9.702-13.798-32.717-24.491-47.753-17.613c-6.306,2.876-15.821,10.846-11.819,32.282
			c-4.787,5.103-19.413,16.452-52.813,13.363c-5.154-0.717-19.874-4.352-25.873-12.424c-8.943-12.032-34.552-18.159-49.749-11.955
			c-9.464,3.857-14.285,12.143-12.919,22.144c1.382,10.146,0.239,14.251-0.239,15.445c-0.742,0.495-1.408,1.109-1.971,1.818
			c-1.212,1.553-29.107,37.956-17.818,84.241c-3.806,3.482-8.977,9.617-10.368,18.304c-1.143,7.108,0.461,14.225,4.779,21.231
			c-3.849,6.579-8.482,18.039-3.695,29.969c6.647,16.589,27.699,26.453,64.375,30.157c2.287,0.222,4.634-0.486,6.4-2.014
			c2.022-1.724,10.735-7.834,17.178-6.195c3.499,0.905,6.451,4.471,8.755,10.607c1.408,3.738,5.239,5.965,9.131,5.47
			c2.27-0.316,56.124-7.723,92.74-24.567c11.418-4.198,26.778-6.059,30.208-2.27c7.228,7.936,38.135,26.982,64.239,26.974
			c3.106,0,6.153-0.273,9.071-0.862c10.086-2.039,17.647-7.671,22.135-16.41c3.106-0.145,7.433,0.956,9.549,7.134
			c0.768,2.227,2.415,4.036,4.565,5.009c13.807,6.246,42.624,11.128,56.61-12.681l4.514-1.51c6.238,4.002,18.679,10.308,31.309,7.04
			c6.05-1.57,14.242-6.025,19.934-18.142l7.868-5.239l5.973-0.384c0.973-0.06,1.929-0.29,2.825-0.674
			c1.254-0.538,30.711-13.431,39.953-40.252C514.229,292.334,512.573,277.324,504.594,261.784z M493.262,300.799
			c-5.837,17.067-24.44,27.204-29.363,29.636l-6.656,0.427c-1.493,0.094-2.935,0.58-4.19,1.417l-11.844,7.893
			c-1.425,0.956-2.526,2.304-3.174,3.891c-3.652,9.003-8.038,10.163-9.472,10.547c-7.347,1.937-17.382-4.318-20.326-6.63
			c-2.261-1.818-5.282-2.347-8.03-1.442l-11.844,3.951c-2.202,0.734-4.011,2.33-5.001,4.42
			c-7.586,15.881-25.626,11.554-32.973,8.986c-7.398-15.189-23.279-16.486-32.853-13.338c-2.509,0.828-4.489,2.773-5.376,5.265
			c-2.014,5.734-5.53,8.815-11.401,10.001c-18.97,3.814-51.268-14.242-57.293-20.873c-13.082-14.387-42.889-4.412-49.357-2.014
			c-27.81,12.783-67.209,20.028-82.304,22.468c-5.316-9.668-12.271-13.38-17.562-14.737c-12.194-3.132-23.927,3.524-29.44,7.398
			c-35.618-4.105-44.681-13.662-46.899-19.098c-3.413-8.388,4.659-18.193,4.71-18.253c2.68-3.14,2.739-7.748,0.12-10.948
			c-3.866-4.719-5.521-9.062-4.941-12.911c0.444-2.935,2.082-5.385,3.669-7.134c0.256,0.111,0.461,0.188,0.717,0.299
			c4.48,2.031,8.721,3.814,12.749,5.376c0.401,0.162,0.802,0.316,1.195,0.469c3.908,1.493,7.586,2.782,11.042,3.891
			c0.538,0.171,1.058,0.341,1.579,0.503c3.132,0.973,6.067,1.801,8.806,2.5c0.759,0.196,1.468,0.367,2.193,0.546
			c2.347,0.555,4.54,1.033,6.554,1.417c0.887,0.171,1.69,0.307,2.509,0.452c1.673,0.282,3.243,0.521,4.642,0.691
			c0.845,0.111,1.562,0.188,2.304,0.256c1.058,0.111,2.022,0.188,2.893,0.247c0.717,0.043,1.297,0.077,1.877,0.094
			c0.759,0.026,1.417,0.043,1.946,0.043c0.375-0.009,0.572-0.009,0.819-0.017c0.478-0.008,0.836-0.026,0.964-0.034
			c67.396-8.175,105.634,0.009,117.99,3.507c2.842,0.811,4.309,1.374,4.446,1.425c6.878,2.406,13.559,4.591,20.147,6.656
			c2.014,0.631,3.977,1.195,5.965,1.801c4.531,1.365,9.003,2.671,13.389,3.874c2.227,0.614,4.42,1.203,6.605,1.775
			c4.215,1.101,8.346,2.116,12.425,3.081c1.963,0.461,3.951,0.947,5.879,1.374c5.171,1.143,10.223,2.185,15.172,3.106
			c0.674,0.128,1.382,0.29,2.048,0.41c5.513,1.007,10.846,1.852,16.094,2.594c1.835,0.265,3.601,0.469,5.402,0.7
			c3.448,0.444,6.861,0.845,10.197,1.186c1.954,0.196,3.883,0.375,5.803,0.538c3.157,0.265,6.246,0.478,9.301,0.657
			c1.766,0.102,3.558,0.222,5.291,0.29c3.61,0.154,7.117,0.23,10.564,0.256c0.87,0.009,1.801,0.06,2.662,0.06
			c0.128,0,0.256-0.009,0.384-0.009c4.651-0.009,9.114-0.145,13.483-0.358c1.442-0.068,2.842-0.162,4.25-0.247
			c3.166-0.205,6.246-0.452,9.267-0.751c1.271-0.128,2.56-0.239,3.806-0.384c3.968-0.452,7.825-0.973,11.529-1.57
			c0.785-0.128,1.519-0.29,2.295-0.418c3.021-0.529,5.948-1.092,8.789-1.707c1.152-0.247,2.278-0.503,3.405-0.759
			c2.654-0.623,5.222-1.271,7.714-1.954c0.759-0.205,1.553-0.401,2.295-0.614c3.115-0.887,6.093-1.826,8.943-2.799
			c0.802-0.265,1.545-0.546,2.321-0.819c2.15-0.768,4.232-1.544,6.229-2.338c0.802-0.316,1.604-0.631,2.381-0.956
			c2.364-0.981,4.642-1.971,6.793-2.978c0.171-0.085,0.367-0.162,0.538-0.239c2.304-1.092,4.454-2.193,6.511-3.285
			c0.631-0.333,1.22-0.657,1.818-0.99c1.519-0.836,2.961-1.655,4.326-2.475c0.495-0.29,0.99-0.58,1.459-0.87
			c1.724-1.05,3.354-2.091,4.847-3.098c0.299-0.205,0.555-0.393,0.845-0.589c1.212-0.836,2.347-1.638,3.405-2.423
			c0.401-0.299,0.785-0.589,1.169-0.879c0.964-0.734,1.86-1.442,2.688-2.108c0.213-0.179,0.452-0.367,0.666-0.538
			c0.981-0.811,1.843-1.562,2.62-2.253c0.222-0.205,0.401-0.375,0.606-0.563c0.555-0.503,1.05-0.964,1.476-1.382
			c0.171-0.162,0.324-0.316,0.478-0.461c0.478-0.478,0.896-0.905,1.186-1.212c1.058-0.862,2.142-1.903,3.226-3.055
			c0.41-0.427,0.811-0.922,1.212-1.382c0.691-0.776,1.374-1.544,2.057-2.398c0.478-0.589,0.939-1.203,1.408-1.818
			c0.606-0.794,1.203-1.579,1.801-2.398c0.503-0.708,0.99-1.408,1.476-2.125c0.333-0.469,0.674-0.93,0.99-1.408
			C495.515,289.33,495.165,295.235,493.262,300.799z"/>
	</g>
</g>
</svg>